<?xml version="1.0" encoding="utf-8"?>
<!-- Generator: Adobe Illustrator 23.0.3, SVG Export Plug-In . SVG Version: 6.00 Build 0)  -->
<svg version="1.1" id="Layer_1" xmlns="http://www.w3.org/2000/svg" xmlns:xlink="http://www.w3.org/1999/xlink" x="0px" y="0px"
	 viewBox="0 0 100 100" style="enable-background:new 0 0 100 100;" xml:space="preserve">
<style type="text/css">
	.st0{fill:none;stroke:#000000;stroke-width:2;stroke-miterlimit:10;}
</style>
<g>
	<g>
		<polygon points="11.64,29.5 1.03,9.02 64.94,9.02 64.94,11.02 4.31,11.02 13.42,28.58 		"/>
	</g>
	<g>
		<polygon points="49.7,96.31 17.37,40.36 19.1,39.36 49.74,92.38 59.59,76.18 61.3,77.22 		"/>
	</g>
	<g>
		<polygon points="67.88,65.17 66.15,64.18 96.43,11.02 77.05,11.02 77.05,9.02 99.87,9.02 		"/>
	</g>
	<g>
		<rect x="30.21" y="14.95" width="2" height="33.9"/>
	</g>
	<g>
		<path class="st0" d="M42.3,31.9"/>
	</g>
	<g>
		<rect x="41.91" y="14.95" width="2" height="26.77"/>
	</g>
	<g>
		<rect x="26.75" y="37.92" transform="matrix(0.4902 -0.8716 0.8716 0.4902 -8.125 63.9428)" width="47.71" height="2"/>
	</g>
	<g>
		<polygon points="53.42,72.34 46.83,55.78 48.69,55.04 53.78,67.84 70.2,40.44 71.91,41.47 		"/>
	</g>
	<g>
		<rect x="31.21" y="31.34" width="11.7" height="2"/>
	</g>
</g>
</svg>
