<?xml version="1.0" encoding="utf-8"?>
<!-- Generator: Adobe Illustrator 23.0.3, SVG Export Plug-In . SVG Version: 6.00 Build 0)  -->
<svg version="1.1" id="Layer_1" xmlns="http://www.w3.org/2000/svg" xmlns:xlink="http://www.w3.org/1999/xlink" x="0px" y="0px"
	 viewBox="0 0 100 100" style="enable-background:new 0 0 100 100;" xml:space="preserve">
<style type="text/css">
	.st0{fill:#FFFFFF;}
</style>
<g>
	<g>
		<g>
			<polygon class="st0" points="11.35,27.54 0.9,7.37 63.82,7.37 63.82,9.34 4.14,9.34 13.1,26.63 			"/>
		</g>
	</g>
	<g>
		<g>
			<polygon class="st0" points="48.82,93.31 16.99,38.23 18.7,37.24 48.86,89.44 58.55,73.49 60.24,74.52 			"/>
		</g>
	</g>
	<g>
		<g>
			<polygon class="st0" points="66.72,62.65 65.01,61.68 94.83,9.34 75.74,9.34 75.74,7.37 98.21,7.37 			"/>
		</g>
	</g>
	<g>
		<g>
			<rect x="29.63" y="13.21" class="st0" width="1.97" height="33.38"/>
		</g>
	</g>
	<g>
		<g>
			<path class="st0" d="M41.53,29.9"/>
		</g>
	</g>
	<g>
		<g>
			<rect x="41.16" y="13.21" class="st0" width="1.97" height="26.36"/>
		</g>
	</g>
	<g>
		<g>
			
				<rect x="26.23" y="35.82" transform="matrix(0.4902 -0.8716 0.8716 0.4902 -6.7406 62.0881)" class="st0" width="46.97" height="1.97"/>
		</g>
	</g>
	<g>
		<g>
			<polygon class="st0" points="52.48,69.71 46,53.41 47.83,52.68 52.84,65.28 69,38.31 70.69,39.32 			"/>
		</g>
	</g>
	<g>
		<g>
			<rect x="30.62" y="29.35" class="st0" width="11.52" height="1.97"/>
		</g>
	</g>
</g>
</svg>
